<svg xmlns="http://www.w3.org/2000/svg" viewBox="0 0 1544 500" width="1544" height="500">
  <defs>
    <linearGradient id="g" x1="0" y1="0" x2="1" y2="1">
      <stop offset="0%"  stop-color="#1a2747"/>
      <stop offset="100%" stop-color="#2a4080"/>
    </linearGradient>
  </defs>
  <rect width="1544" height="500" fill="url(#g)"/>
  <!-- Logo pin -->
  <g transform="translate(140, 130)">
    <path d="M120 0C53.7 0 0 50.7 0 113.3 0 198.5 120 365 120 365s120-166.5 120-251.7C240 50.7 186.3 0 120 0zm0 170.6c-27.7 0-50.2-22-50.2-49.1 0-27.1 22.5-49.1 50.2-49.1s50.2 22 50.2 49.1c0 27.1-22.5 49.1-50.2 49.1z" fill="#fff"/>
  </g>
  <!-- Title -->
  <g transform="translate(450, 200)">
    <text x="0" y="0" fill="#ffffff" font-family="-apple-system, BlinkMacSystemFont, 'Segoe UI', sans-serif" font-size="80" font-weight="700">CodeOn Core</text>
    <text x="0" y="60" fill="#a8b3d0" font-family="-apple-system, BlinkMacSystemFont, 'Segoe UI', sans-serif" font-size="34" font-weight="400">Georgian Locations for WooCommerce</text>
    <text x="0" y="120" fill="#f5a623" font-family="-apple-system, BlinkMacSystemFont, 'Segoe UI', sans-serif" font-size="24" font-weight="500">13 regions · 77 municipalities · 4,394 settlements</text>
  </g>
</svg>
